<svg width="300" viewBox="0 0 799 193" xmlns="http://www.w3.org/2000/svg"><defs><linearGradient x1="50%" y1="-52%" x2="50%" y2="210.6%" id="a"><stop stop-color="#ED3557" offset="0%"/><stop stop-color="#8A479A" offset="100%"/></linearGradient><linearGradient x1="50%" y1="-111.3%" x2="50%" y2="253.9%" id="b"><stop stop-color="#ED3557" offset="0%"/><stop stop-color="#8A479A" offset="100%"/></linearGradient><linearGradient x1="50%" y1="-107.6%" x2="50%" y2="246.1%" id="c"><stop stop-color="#ED3557" offset="0%"/><stop stop-color="#8A479A" offset="100%"/></linearGradient><linearGradient x1="50%" y1="-52.7%" x2="50%" y2="211.1%" id="d"><stop stop-color="#ED3557" offset="0%"/><stop stop-color="#8A479A" offset="100%"/></linearGradient><linearGradient x1="50%" y1="-114.9%" x2="50%" y2="253.6%" id="e"><stop stop-color="#ED3557" offset="0%"/><stop stop-color="#8A479A" offset="100%"/></linearGradient><linearGradient x1="50%" y1="-108.4%" x2="50%" y2="246.8%" id="f"><stop stop-color="#ED3557" offset="0%"/><stop stop-color="#8A479A" offset="100%"/></linearGradient><linearGradient x1="50%" y1="-52.9%" x2="50%" y2="211.3%" id="g"><stop stop-color="#ED3557" offset="0%"/><stop stop-color="#8A479A" offset="100%"/></linearGradient><linearGradient x1="84%" y1="-.7%" x2="-104.9%" y2="161.8%" id="h"><stop stop-color="#ED3557" offset="0%"/><stop stop-color="#8A479A" offset="100%"/></linearGradient><linearGradient x1="96.5%" y1="-18.6%" x2="-30.9%" y2="136%" id="i"><stop stop-color="#ED3557" offset="0%"/><stop stop-color="#8A479A" offset="100%"/></linearGradient><linearGradient x1="43.9%" y1="20.6%" x2="73.6%" y2="90.3%" id="j"><stop stop-color="#ED3557" stop-opacity="0" offset="0%"/><stop stop-color="#B43F7E" stop-opacity=".6" offset="40.9%"/><stop stop-color="#8A479A" stop-opacity=".9" offset="100%"/></linearGradient></defs><g fill="none"><path d="M250 39.9c0 17.8-27 17.8-27 0 0-18 27-18 27 0zm-25 25.8v93.2h23V65.7h-23z" fill="url(#a)" transform="translate(0 -1)"/><path d="M290 66l1.7 10.8c7.1-11.5 16.7-13.2 26.2-13.2 9.4 0 18.8 3.7 23.9 8.8l-10.4 20a23 23 0 00-16.6-6.1c-12 0-23.1 6.4-23.1 23.5v49h-23V66H290z" fill="url(#b)" transform="translate(0 -1)"/><path d="M430 147a47.8 47.8 0 01-35.7 14.6c-27 0-49.4-16.1-49.4-49 0-33 22.4-49.2 49.3-49.2A44 44 0 01427.8 77l-14.6 15.3a28.1 28.1 0 00-18.6-7.4c-15.4 0-26.7 11.3-26.7 27.5 0 17.7 12 27.2 26.3 27.2 7.6.3 15-2.5 20.5-7.8l15.4 15z" fill="url(#c)" transform="translate(0 -1)"/><path d="M463.3 27v51.6a34.3 34.3 0 0129-13.9c26.3 0 38 17.9 38 45.2v49h-23V110c0-17-8.9-24.1-21.1-24.1-13.6 0-23 11.5-23 25.4V159h-23V27h23z" fill="url(#d)" transform="translate(0 -1)"/><path d="M571.3 66v48.6c0 14.1 7.7 24.8 22.5 24.8 14 0 23.7-11.8 23.7-26V66h22.8v93h-20.6l-1.5-12.6a41.2 41.2 0 01-31.4 14c-22.3 0-38.5-16.8-38.5-45.6V66h23z" fill="url(#e)" transform="translate(0 -1)"/><path d="M734.2 66h22v93h-21.6l-1.2-13.6c-5.2 11-19.7 16.2-30 16.3-27.6.2-48-16.7-48-49.3 0-32 21.4-48.8 48.5-48.6 12.4 0 24.3 5.9 29.5 15l.8-12.7zm-55.8 46.3c0 17.7 12.3 28.3 27.5 28.3 36.2 0 36.2-56.3 0-56.3-15.2 0-27.5 10.4-27.5 28z" fill="url(#f)" transform="translate(0 -1)"/><path fill="url(#g)" d="M798.4 27.2V159h-22.8V27.2z" transform="translate(0 -1)"/><path d="M66.6 1.6l60.3 103.8 18.2 31.2 13.6-23.4L223.6 1.6h-157zM121 32.8h48l-24 41.4-24-41.4z" fill="url(#h)" transform="translate(0 -1)"/><path fill="url(#i)" d="M.5 1.6l111.6 191.8 33-56.8 13.6-23.4-27.3-15.6-4.5 7.8-14.8 25.6L36.8 1.6z" transform="translate(0 -1)"/><path fill="url(#j)" d="M145 74.2l-18 31.2L66.6 1.6 121 32.8z" transform="translate(0 -1)"/></g></svg>